General

Complete name                    : Nirvana-Live At Reading.1992.{IPOD-ZUNE-PSP}DVDRip.aaaevilacharya.m4v
Format                           : MPEG-4
Format profile                   : Base Media / Version 2
Codec ID                         : mp42
File size                        : 399 MiB
Duration                         : 1h 37mn
Overall bit rate                 : 573 Kbps
Encoded date                     : UTC 2011-02-04 03:11:12
Tagged date                      : UTC 2011-02-04 04:15:45


Video
ID                               : 1
Format                           : AVC
Format/Info                      : Advanced Video Codec
Format profile                   : Baseline@L3.0
Format settings, CABAC           : No
Format settings, ReFrames        : 1 frame
Codec ID                         : avc1
Codec ID/Info                    : Advanced Video Coding
Duration                         : 1h 37mn
Bit rate mode                    : Variable
Bit rate                         : 460 Kbps
Width                            : 496 pixels
Height                           : 224 pixels
Display aspect ratio             : 2.25:1
Original display aspect ratio    : 2.25:1
Frame rate mode                  : Variable
Frame rate                       : 29.970 fps
Minimum frame rate               : 29.970 fps
Maximum frame rate               : 29.980 fps
Color space                      : YUV
Chroma subsampling               : 4:2:0
Bit depth                        : 8 bits
Scan type                        : Progressive
Bits/(Pixel*Frame)               : 0.214
Stream size                      : 320 MiB (80%)
Writing library                  : x264 core 79


Audio
ID                               : 2
Format                           : AAC
Format/Info                      : Advanced Audio Codec
Format version                   : Version 4
Format profile                   : LC
Format settings, SBR             : No
Codec ID                         : 40
Duration                         : 1h 37mn
Bit rate mode                    : Variable
Bit rate                         : 110 Kbps
Maximum bit rate                 : 209 Kbps
Channel(s)                       : 2 channels
Channel positions                : Front: L R
Sampling rate                    : 44.1 KHz
Stream size                      : 76.8 MiB (19%)
Encoded date                     : UTC 2011-02-04 03:11:12
Tagged date                      : UTC 2011-02-04 04:15:43

Text
ID                               : 3
Format                           : Apple text
Codec ID                         : text
Duration                         : 1h 37mn
Bit rate                         : 0
Stream size                      : 14.0 Bytes (0%)
Encoded date                     : UTC 2011-02-04 03:11:12
Tagged date                      : UTC 2011-02-04 04:15:45

SCREENSHOTS
 
http://img12.imageshack.us/img12/8862/nirvanaliveatreading199.jpg 
http://img525.imageshack.us/img525/8862/nirvanaliveatreading199.jpg 
http://img823.imageshack.us/img823/8862/nirvanaliveatreading199.jpg 
http://img811.imageshack.us/img811/8862/nirvanaliveatreading199.jpg 
http://img638.imageshack.us/img638/849/onirvanaliveatreading19.jpg 
http://img600.imageshack.us/img600/8862/nirvanaliveatreading199.jpg 
http://img51.imageshack.us/img51/8862/nirvanaliveatreading199.jpg 
http://img27.imageshack.us/img27/8862/nirvanaliveatreading199.jpg 
http://img600.imageshack.us/img600/5575/nirvanaliveatreading199d.jpg 
http://img825.imageshack.us/img825/8862/nirvanaliveatreading199.jpg 
http://img41.imageshack.us/img41/8862/nirvanaliveatreading199.jpg 
http://img841.imageshack.us/img841/8862/nirvanaliveatreading199.jpg 
http://img191.imageshack.us/img191/8862/nirvanaliveatreading199.jpg
